HIERARCHY
ROOT hip
{
  OFFSET 0 0 0
  CHANNELS 6 Xposition Yposition Zposition Zrotation Yrotation Xrotation
  JOINT abdomen
  {
    OFFSET 0 20.6881 -0.73152
    CHANNELS 3 Zrotation Xrotation Yrotation
    JOINT chest
    {
      OFFSET 0 11.7043 -0.48768
      CHANNELS 3 Zrotation Xrotation Yrotation
      JOINT neck
      {
        OFFSET 0 22.1894 -2.19456
        CHANNELS 3 Zrotation Xrotation Yrotation
        JOINT head
        {
          OFFSET -0.24384 7.07133 1.2192
          CHANNELS 3 Zrotation Xrotation Yrotation
          JOINT leftEye
          {
            OFFSET 4.14528 8.04674 8.04672
            CHANNELS 3 Zrotation Xrotation Yrotation
            End Site
            {
              OFFSET 1 0 0
            }
          }
          JOINT rightEye
          {
            OFFSET -3.6576 8.04674 8.04672
            CHANNELS 3 Zrotation Xrotation Yrotation
            End Site
            {
              OFFSET 1 0 0
            }
          }
        }
      }
      JOINT rCollar
      {
        OFFSET -2.68224 19.2634 -4.8768
        CHANNELS 3 Zrotation Xrotation Yrotation
        JOINT rShldr
        {
          OFFSET -8.77824 -1.95073 1.46304
          CHANNELS 3 Zrotation Xrotation Yrotation
          JOINT rForeArm
          {
            OFFSET -28.1742 -1.7115 0.48768
            CHANNELS 3 Zrotation Xrotation Yrotation
            JOINT rHand
            {
              OFFSET -22.5879 0.773209 7.07136
              CHANNELS 3 Zrotation Xrotation Yrotation
              JOINT rThumb1
              {
                OFFSET -1.2192 -0.487915 3.41376
                CHANNELS 3 Zrotation Xrotation Yrotation
                JOINT rThumb2
                {
                  OFFSET -3.37035 -0.52449 3.41376
                  CHANNELS 3 Zrotation Xrotation Yrotation
                  End Site
                  {
                    OFFSET -1.78271 -1.18214 1.43049
                  }
                }
              }
              JOINT rIndex1
              {
                OFFSET -7.75947 0.938293 5.60832
                CHANNELS 3 Zrotation Xrotation Yrotation
                JOINT rIndex2
                {
                  OFFSET -2.54057 -0.884171 1.56538
                  CHANNELS 3 Zrotation Xrotation Yrotation
                  End Site
                  {
                    OFFSET -1.62519 -0.234802 1.16502
                  }
                }
              }
              JOINT rMid1
              {
                OFFSET -8.24714 1.18213 3.41376
                CHANNELS 3 Zrotation Xrotation Yrotation
                JOINT rMid2
                {
                  OFFSET -3.10165 -0.590103 1.0647
                  CHANNELS 3 Zrotation Xrotation Yrotation
                  End Site
                  {
                    OFFSET -2.48547 -0.328903 0.83742
                  }
                }
              }
              JOINT rRing1
              {
                OFFSET -8.82822 0.546677 1.51678
                CHANNELS 3 Zrotation Xrotation Yrotation
                JOINT rRing2
                {
                  OFFSET -2.60934 -0.819778 -0.0198488
                  CHANNELS 3 Zrotation Xrotation Yrotation
                  End Site
                  {
                    OFFSET -2.33842 -0.294052 0.168128
                  }
                }
              }
              JOINT rPinky1
              {
                OFFSET -8.27202 -0.0477905 -0.4584
                CHANNELS 3 Zrotation Xrotation Yrotation
                JOINT rPinky2
                {
                  OFFSET -1.82734 -0.647385 -0.700984
                  CHANNELS 3 Zrotation Xrotation Yrotation
                  End Site
                  {
                    OFFSET -1.69225 -0.51767 -0.607171
                  }
                }
              }
            }
          }
        }
      }
      JOINT lCollar
      {
        OFFSET 2.68224 19.2634 -4.8768
        CHANNELS 3 Zrotation Xrotation Yrotation
        JOINT lShldr
        {
          OFFSET 8.77824 -1.95073 1.46304
          CHANNELS 3 Zrotation Xrotation Yrotation
          JOINT lForeArm
          {
            OFFSET 28.1742 -1.7115 0.48768
            CHANNELS 3 Zrotation Xrotation Yrotation
            JOINT lHand
            {
              OFFSET 22.5879 0.773209 7.07136
              CHANNELS 3 Zrotation Xrotation Yrotation
              JOINT lThumb1
              {
                OFFSET 1.2192 -0.487915 3.41376
                CHANNELS 3 Zrotation Xrotation Yrotation
                JOINT lThumb2
                {
                  OFFSET 3.37035 -0.52449 3.41376
                  CHANNELS 3 Zrotation Xrotation Yrotation
                  End Site
                  {
                    OFFSET 1.78271 -1.18214 1.43049
                  }
                }
              }
              JOINT lIndex1
              {
                OFFSET 7.75947 0.938293 5.60832
                CHANNELS 3 Zrotation Xrotation Yrotation
                JOINT lIndex2
                {
                  OFFSET 2.54057 -0.884171 1.56538
                  CHANNELS 3 Zrotation Xrotation Yrotation
                  End Site
                  {
                    OFFSET 1.62519 -0.234802 1.16502
                  }
                }
              }
              JOINT lMid1
              {
                OFFSET 8.24714 1.18213 3.41376
                CHANNELS 3 Zrotation Xrotation Yrotation
                JOINT lMid2
                {
                  OFFSET 3.10165 -0.590103 1.0647
                  CHANNELS 3 Zrotation Xrotation Yrotation
                  End Site
                  {
                    OFFSET 2.48547 -0.328903 0.83742
                  }
                }
              }
              JOINT lRing1
              {
                OFFSET 8.82822 0.546677 1.51678
                CHANNELS 3 Zrotation Xrotation Yrotation
                JOINT lRing2
                {
                  OFFSET 2.60934 -0.819778 -0.0198488
                  CHANNELS 3 Zrotation Xrotation Yrotation
                  End Site
                  {
                    OFFSET 2.33842 -0.294052 0.168128
                  }
                }
              }
              JOINT lPinky1
              {
                OFFSET 8.27202 -0.0477905 -0.4584
                CHANNELS 3 Zrotation Xrotation Yrotation
                JOINT lPinky2
                {
                  OFFSET 1.82734 -0.647385 -0.700984
                  CHANNELS 3 Zrotation Xrotation Yrotation
                  End Site
                  {
                    OFFSET 1.69225 -0.51767 -0.607171
                  }
                }
              }
            }
          }
        }
      }
    }
  }
  JOINT rButtock
  {
    OFFSET -8.77824 4.35084 1.2192
    CHANNELS 3 Zrotation Xrotation Yrotation
    JOINT rThigh
    {
      OFFSET 0 -1.70687 -2.19456
      CHANNELS 3 Zrotation Xrotation Yrotation
      JOINT rShin
      {
        OFFSET 0 -36.8199 0.73152
        CHANNELS 3 Zrotation Xrotation Yrotation
        JOINT rFoot
        {
          OFFSET 0.73152 -45.1104 -5.12064
          CHANNELS 3 Zrotation Xrotation Yrotation
          End Site
          {
            OFFSET -1.1221 -3.69964 12.103
          }
        }
      }
    }
  }
  JOINT lButtock
  {
    OFFSET 8.77824 4.35084 1.2192
    CHANNELS 3 Zrotation Xrotation Yrotation
    JOINT lThigh
    {
      OFFSET 0 -1.70687 -2.19456
      CHANNELS 3 Zrotation Xrotation Yrotation
      JOINT lShin
      {
        OFFSET 0 -36.8199 0.73152
        CHANNELS 3 Zrotation Xrotation Yrotation
        JOINT lFoot
        {
          OFFSET -0.73152 -45.1104 -5.12064
          CHANNELS 3 Zrotation Xrotation Yrotation
          End Site
          {
            OFFSET 1.1221 -3.69964 12.103
          }
        }
      }
    }
  }
}
MOTION
Frames:	5
Frame Time:	0.03333
0.0 0.0 0.0 0.0 0.0 0.0 0.0 0.0 0.0 0.0 0.0 0.0 0.0 0.0 0.0 0.0 0.0 0.0 0.0 0.0 0.0 0.0 0.0 0.0 0.0 0.0 0.0 0.0 0.0 0.0 0.0 0.0 0.0 0.0 0.0 0.0 0.0 0.0 0.0 0.0 0.0 0.0 0.0 0.0 0.0 0.0 0.0 0.0 0.0 0.0 0.0 0.0 0.0 0.0 0.0 0.0 0.0 0.0 0.0 0.0 0.0 0.0 0.0 0.0 0.0 0.0 0.0 0.0 0.0 0.0 0.0 0.0 0.0 0.0 0.0 0.0 0.0 0.0 0.0 0.0 0.0 0.0 0.0 0.0 0.0 0.0 0.0 0.0 0.0 0.0 0.0 0.0 0.0 0.0 0.0 0.0 0.0 0.0 0.0 0.0 0.0 0.0 0.0 0.0 0.0 0.0 0.0 0.0 0.0 0.0 0.0 0.0 0.0 0.0 0.0 0.0 0.0 0.0 0.0 0.0 0.0 0.0 0.0 0.0 0.0 0.0 0.0 0.0 0.0 0.0 0.0 0.0
0.0103 54.8032 0.0218 178.687403 41.594787 -179.813375 -7.928523 8.309839 0.824168 4.465434 -10.326065 -4.481181 -11.288104 20.776502 -23.995321 21.49355 -19.163258 -19.247209 0.001411 -0.0 -0.000283 0.001411 -0.0 -0.000283 -155.45972 -3.227709 161.777884 -109.842651 -73.485888 -77.825875 -52.344244 36.439638 -83.49906 97.489455 -65.655563 85.511756 -0.544537 0.536021 0.085253 -122.821895 -14.55357 110.179007 -100.825325 37.7345 85.161858 87.229656 -66.412029 39.782161 0.541932 -1.589727 -0.295887 -172.078748 -31.343716 144.105988 -71.53984 -72.13873 -88.497292 -149.854147 -27.214788 -179.920666 -162.362553 72.064026 -150.902918 15.576098 44.015955 6.794039 155.762663 -5.234538 -162.200562 58.709375 17.100437 -8.528155 1.138413 13.443946 139.162578 135.681208 33.781172 -123.834786 0.441444 0.435265 -0.070562 -23.872294 -38.607581 15.680398 43.648074 38.804062 -34.059546 -2.196934 6.925487 1.135036 10.976683 25.789576 -7.640959 42.020124 58.552486 -36.151488 145.120592 0.267406 179.213152 -11.191478 13.761305 7.37354 150.030528 28.966678 145.935458 134.639194 -18.677454 131.098441 -0.000368 0.00035 0.000473 -62.543694 -46.393155 -69.381915 2.870138 72.767015 94.569934 -143.118876 46.233928 81.963037 179.991891 75.749292 0.005548 -144.013202 42.404429 -25.543415 -79.877213 63.251722 -7.092317 -153.234464 77.911383 -102.920096
0.0073 54.80120000000001 0.0394 178.732061 41.59741 -179.775472 -6.188276 7.628744 -42.948086 8.708033 -5.067822 39.237023 -8.859749 19.564292 -10.096064 13.366762 -23.079157 -34.457716 0.000192 0.0 0.002444 0.000451 0.0 0.002037 -155.716875 -4.925506 162.135064 -41.166152 -18.394573 -16.733935 6.124682 -27.30126 -120.20246 155.539019 -36.496198 139.021435 3.024511 -3.006863 -0.386633 -142.408919 -49.531577 122.187867 -145.33756 -6.264962 118.677363 -135.083402 32.367497 107.985993 -156.860875 4.525323 141.181979 -5.065533 21.258472 4.812299 0.001235 0.06345 0.022139 9.22942 12.719143 1.661372 -85.781569 -50.537457 -84.155988 17.0449 43.729297 7.316985 155.613454 -4.236217 -161.991748 -129.379881 -10.077308 -170.598608 22.380174 4.48261 -112.936552 56.674095 -81.776504 65.304814 103.199409 36.331375 -60.111634 3.612621 -20.150771 -26.621659 108.427293 34.161495 -91.74349 5.336935 19.175716 1.902769 -12.027204 -37.299558 3.218685 -27.009936 -57.584349 -4.875252 5e-06 0.063858 -0.020383 -9.230624 12.719213 -1.663059 -14.569643 50.563856 -11.685698 85.781995 -53.537177 84.446051 -179.990171 75.74906 -0.008673 141.598991 7.495776 5.013542 19.571468 64.904663 -9.060629 -65.370764 -1.308638 22.348378 -179.992462 75.750002 -0.005157 -145.772995 40.547848 133.69934 89.277743 -54.708667 0.095337 148.970425 -59.643907 62.394597
-0.00039999999999999996 54.799299999999995 0.0603 178.780871 41.593313 -179.726441 -6.12783 7.607406 -42.579111 8.721542 -5.150947 38.936991 -12.492127 21.766275 -31.948267 25.352095 -16.078665 -10.988191 -0.002412 -0.0 0.000555 -0.002675 -0.0 0.000953 -149.905638 22.421712 154.975057 141.841539 -25.703269 172.327103 -47.380747 -46.858828 47.890466 1.369976 11.9138 2.843598 4.417239 -4.400498 -0.511538 -37.751155 27.547482 31.701475 37.21762 -57.917194 -0.640936 -146.973477 1.241036 112.613331 -160.827054 -7.141736 143.316072 -1.402058 12.593848 2.559966 -145.119091 0.226213 -179.200358 11.801022 26.401331 -5.990855 32.018107 83.320098 6.230851 -10.525158 -24.180781 -11.424067 80.16593 68.372082 -83.260833 107.02485 8.083497 -102.51747 2.68366 11.897829 138.957219 137.243032 32.425284 -125.478716 0.543259 0.536507 -0.085929 -49.087701 -71.293072 12.919987 46.209564 39.652929 -36.317617 -4.118339 3.973071 1.896446 -10.081988 -31.592474 3.25443 42.19009 58.522471 -36.121144 145.121595 1.97381 179.748143 155.652123 0.821447 179.334657 150.579094 31.0341 146.362594 -65.549032 83.561539 28.111098 -179.974197 75.751035 -0.021231 141.692489 7.506405 -0.0 -9.972641 71.527587 -62.456344 149.630215 -15.940556 -76.020155 179.989932 75.749296 0.006889 -144.701057 40.120053 -180.0 -85.200028 -78.146678 177.625761 32.067884 -71.4475 -37.452053
-0.0189 54.7995 0.0697 178.798793 41.582002 -179.716498 -5.342994 6.260113 -80.438054 8.655674 0.724682 76.323986 -1.851386 19.226364 25.920173 -10.379802 -22.703581 -76.144869 -0.000478 0.0 -0.002556 -0.000211 0.0 -0.002949 -155.538179 -3.733536 161.884198 -46.943237 -35.701703 -19.413064 86.65893 -16.452545 -103.171683 -176.870769 37.789754 149.589482 -7.759429 7.438717 1.682049 -107.296138 1.278659 97.520033 88.792814 -75.498222 40.051192 175.798526 -51.034626 104.865148 -153.320766 13.628976 138.862438 -170.201525 -25.753158 143.902013 -0.014868 -1.323029 -0.416675 8.556861 19.539081 2.742575 -23.392447 -36.34887 -22.494044 -19.574358 -37.75297 -21.218938 159.21979 -48.028315 -170.416235 -132.510224 18.848845 150.747632 -161.964547 -9.705659 -30.223685 103.336546 47.843715 -89.429469 3.031254 2.963761 -0.541707 41.705003 26.256325 -38.745318 -5.360904 -9.172292 2.724375 -8.874937 5.428802 -0.209627 82.840687 61.109905 -74.532336 -29.822005 -60.120078 -6.711929 145.119844 0.185337 179.186859 -11.937682 52.991659 2.684468 25.518351 -38.071525 24.577297 126.535202 -30.706193 125.554925 -179.996226 75.74909 -0.002582 142.836572 6.322463 -92.430369 -76.773206 6.751211 -147.255072 50.096162 68.659351 -127.553561 179.999474 75.750831 0.000542 -144.080835 42.258648 -25.423722 -72.056793 64.298016 17.478175 -175.976609 -16.16983 -88.162136
